<svg viewBox="0 0 200 200" xmlns="http://www.w3.org/2000/svg">

 <g>
  <title>background</title>
  <rect fill="none" id="canvas_background" height="202" width="202" y="-1" x="-1"/>
 </g>
 <g>
  <title>Layer 1</title>
  <ellipse stroke-opacity="0" ry="99" rx="99" id="svg_1" cy="100" cx="100" stroke-width="1.5" stroke="#1d8cb5" fill="#1d8cb5"/>
  <g stroke="null" id="layer1_1_">
   <g stroke="null" transform="matrix(0.7714996588329996,0,0,-0.7714996588329996,138.90585825054043,387.4159221644899) " id="g3019">
    <path stroke="null" d="m-94.578367,295.246382l0,104.307l-34.667,0l0,-104.307l34.667,0zm-17.327,118.549c12.081,0 19.612,8.01 19.612,18.021c-0.224,10.233 -7.531,18.021 -19.385,18.021c-11.864,0 -19.615,-7.788 -19.615,-18.021c0,-10.011 7.521,-18.021 19.159,-18.021l0.229,0l0,0z" fill="#FFFFFF" id="path28_1_"/>
    <path stroke="null" d="m-75.392367,295.246382l34.673,0l0,58.249c0,3.119 0.226,6.235 1.143,8.462c2.5,6.232 8.209,12.681 17.784,12.681c12.547,0 17.562,-9.568 17.562,-23.588l0,-55.804l34.666,0l0,59.81c0,32.039 -17.1,46.946 -39.913,46.946c-18.701,0 -26.915,-10.45 -31.476,-17.571l0.234,0l0,15.122l-34.673,0c0.46,-9.786 0,-104.307 0,-104.307l0,0z" fill="#FFFFFF" id="path30_1_"/>
   </g>
  </g>
 </g>
</svg>