<svg viewBox="0 0 200 200" xmlns="http://www.w3.org/2000/svg">

 <g>
  <title>background</title>
  <rect fill="none" id="canvas_background" height="202" width="202" y="-1" x="-1"/>
 </g>
 <g>
  <title>Layer 1</title>
  <ellipse ry="99" rx="99" id="svg_3" cy="100" cx="100" stroke-width="1.5" stroke="#1da1f2" fill="#1da1f2"/>
  <g stroke="null" id="svg_1">
   <path stroke="null" id="svg_2" fill="#ffffff" d="m72.801414,161.767517c57.3629,0 88.73244,-47.522556 88.73244,-88.73244c0,-1.349808 -0.027493,-2.693496 -0.088039,-4.031113c6.089261,-4.402039 11.381787,-9.895432 15.556231,-16.148937c-5.587859,2.483753 -11.601119,4.155775 -17.909201,4.909715c6.438662,-3.860902 11.381787,-9.968372 13.713844,-17.249166c-6.025502,3.572098 -12.698287,6.168323 -19.803105,7.570005c-5.690893,-6.061717 -13.792906,-9.853096 -22.764084,-9.853096c-17.222132,0 -31.187953,13.966331 -31.187953,31.181832c0,2.447232 0.273604,4.827645 0.808671,7.110939c-25.919401,-1.304208 -48.902816,-13.713844 -64.284602,-32.583515c-2.678296,4.608721 -4.222646,9.962252 -4.222646,15.674568c0,10.819686 5.505737,20.371328 13.878088,25.959186c-5.11655,-0.158082 -9.922976,-1.562611 -14.123944,-3.900432c-0.004591,0.130844 -0.004591,0.258408 -0.004591,0.39825c0,15.103285 10.749805,27.71333 25.01963,30.570764c-2.620555,0.714409 -5.377708,1.097475 -8.22341,1.097475c-2.006426,0 -3.961233,-0.19748 -5.861258,-0.562407c3.970313,12.391223 15.48329,21.408308 29.132866,21.660284c-10.673804,8.366231 -24.11986,13.349142 -38.733475,13.349142c-2.514154,0 -4.997856,-0.143004 -7.438916,-0.431696c13.802087,8.84672 30.190759,14.008667 47.805137,14.008667"/>
  </g>
 </g>
</svg>