<svg viewBox="0 0 200 200" xmlns="http://www.w3.org/2000/svg">

 <g>
  <title>background</title>
  <rect fill="none" id="canvas_background" height="202" width="202" y="-1" x="-1"/>
 </g>
 <g>
  <title>Layer 1</title>
  <ellipse ry="99" rx="99" id="svg_1" cy="100" cx="100" stroke-width="1.5" stroke="#cd201f" fill="#cd201f"/>
  <g id="g10" transform="matrix(0.12948983469277162,0,0,-0.12948983469277162,397.1899603963335,336.9956261290256) ">
   <g id="g12" transform="translate(0,0.800000011920929) scale(0.10000000149011612) ">
    <path fill="#e3e2e0" fill-rule="nonzero" d="m-21585.410261,18223.080015l-2420.42,1616.25l2760,-1440l-339.58,-176.25" id="path14"/>
    <path fill="#ffffff" fill-rule="nonzero" d="m-24005.360261,16969.330015l-0.47,2870l2760,-1440l-2759.53,-1430zm6059.78,3367.19c0,0 -99.8,703.89 -406.08,1013.86c-388.42,406.83 -823.8,408.85 -1023.46,432.67c-1429.37,103.32 -3573.5,103.32 -3573.5,103.32l-4.44,0c0,0 -2144.08,0 -3573.5,-103.32c-199.67,-23.82 -634.895,-25.84 -1023.454,-432.67c-306.253,-309.97 -405.914,-1013.86 -405.914,-1013.86c0,0 -102.152,-826.6 -102.152,-1653.19l0,-774.93c0,-826.58 102.152,-1653.17 102.152,-1653.17c0,0 99.661,-703.899 405.914,-1013.871c388.559,-406.84 898.964,-393.969 1126.294,-436.61c817.17,-78.359 3472.89,-102.609 3472.89,-102.609c0,0 2146.34,3.23047 3575.71,106.551c199.66,23.82 635.04,25.828 1023.46,432.668c306.28,309.972 406.08,1013.871 406.08,1013.871c0,0 102,826.59 102,1653.17l0,774.93c0,826.59 -102,1653.19 -102,1653.19" id="path16"/>
   </g>
  </g>
 </g>
</svg>